<svg xmlns="http://www.w3.org/2000/svg" width="22.017" height="29.098" viewBox="0 0 22.017 29.098">
  <g id="money" transform="translate(-5.001 -1.889)">
    <path id="Path_77" data-name="Path 77" d="M18.7,9.6,18.4,9H13.6l-.2.7A8.874,8.874,0,0,1,10,14h0c-6.1,4.1-5,12.5,2,15.2h0a11.041,11.041,0,0,0,8,0h0c7-2.7,8.1-11.2,2.1-15.3h0A8.448,8.448,0,0,1,18.7,9.6Z" fill="none" stroke="#00a6cf" stroke-linecap="round" stroke-linejoin="round" stroke-miterlimit="10" stroke-width="2"/>
    <line id="Line_9" data-name="Line 9" x2="3.4" y2="5.5" transform="translate(10.4 3.5)" fill="none" stroke="#00a6cf" stroke-linecap="round" stroke-linejoin="round" stroke-miterlimit="10" stroke-width="2"/>
    <path id="Path_78" data-name="Path 78" d="M11.6,4.6l1.1-1.1a1.569,1.569,0,0,1,2.2,0h0a1.569,1.569,0,0,0,2.2,0h0a1.569,1.569,0,0,1,2.2,0l1.1,1.1" fill="none" stroke="#00a6cf" stroke-linecap="round" stroke-linejoin="round" stroke-miterlimit="10" stroke-width="2"/>
    <path id="Path_79" data-name="Path 79" d="M21.6,9H18.2l3.4-5.5" fill="none" stroke="#00a6cf" stroke-linecap="round" stroke-linejoin="round" stroke-miterlimit="10" stroke-width="2"/>
    <line id="Line_10" data-name="Line 10" y2="1" transform="translate(16 16)" fill="none" stroke="#00a6cf" stroke-linecap="round" stroke-linejoin="round" stroke-miterlimit="10" stroke-width="2"/>
    <line id="Line_11" data-name="Line 11" y2="1" transform="translate(16 23)" fill="none" stroke="#00a6cf" stroke-linecap="round" stroke-linejoin="round" stroke-miterlimit="10" stroke-width="2"/>
    <path id="Path_80" data-name="Path 80" d="M17,17H15.5A1.538,1.538,0,0,0,14,18.5h0A1.538,1.538,0,0,0,15.5,20h1A1.538,1.538,0,0,1,18,21.5h0A1.538,1.538,0,0,1,16.5,23H15" fill="none" stroke="#00a6cf" stroke-linecap="round" stroke-linejoin="round" stroke-miterlimit="10" stroke-width="2"/>
  </g>
</svg>
