<svg xmlns="http://www.w3.org/2000/svg" width="22.224" height="22.636" viewBox="0 0 22.224 22.636">
  <g id="our-team" transform="translate(2 5)">
    <g id="Outlined" transform="translate(-2 -5)">
      <g id="Social" transform="translate(0 0)">
        <g id="Outlined-_-Social-_-group" data-name="Outlined-/-Social-/-group" transform="translate(0 0)">
          <g id="Group_11" data-name="Group 11">
            <path id="Path" d="M0,0H22.224V22.636H0Z" fill="none" fill-rule="evenodd"/>
            <path id="_-Icon-Color" data-name="🔹-Icon-Color" d="M8.5,13.456c-2.174,0-6.5,1.131-6.5,3.383V18.53H15.007V16.839C15.007,14.587,10.678,13.456,8.5,13.456ZM4.174,16.6A8.7,8.7,0,0,1,8.5,15.389,8.7,8.7,0,0,1,12.833,16.6ZM8.5,11.765a3.323,3.323,0,0,0,3.252-3.383A3.323,3.323,0,0,0,8.5,5,3.323,3.323,0,0,0,5.252,8.383,3.323,3.323,0,0,0,8.5,11.765Zm0-4.832A1.451,1.451,0,1,1,7.11,8.383,1.421,1.421,0,0,1,8.5,6.933Zm6.541,6.582a4.088,4.088,0,0,1,1.821,3.325V18.53h3.716V16.839C20.581,14.887,17.33,13.775,15.044,13.514Zm-.966-1.749A3.323,3.323,0,0,0,17.33,8.383,3.323,3.323,0,0,0,14.078,5a3.1,3.1,0,0,0-1.394.338,5.452,5.452,0,0,1,0,6.089A3.1,3.1,0,0,0,14.078,11.765Z" transform="translate(-0.179 -0.447)" fill="#00a6cf" fill-rule="evenodd"/>
          </g>
        </g>
      </g>
    </g>
  </g>
</svg>
