<svg xmlns="http://www.w3.org/2000/svg" width="18" height="23.784" viewBox="0 0 18 23.784">
  <path id="quality" d="M12,2a7,7,0,1,0,7,7A7,7,0,0,0,12,2ZM3,9a9,9,0,1,1,15.94,5.731l1.568,6.586a2,2,0,0,1-2.747,2.3L12,21.091l-5.761,2.52a2,2,0,0,1-2.747-2.3L5.06,14.731A8.967,8.967,0,0,1,3,9Zm3.741,7.3-1.3,5.475,5.761-2.52a2,2,0,0,1,1.6,0l5.761,2.52-1.3-5.475a9,9,0,0,1-10.518,0ZM16.707,6.293a1,1,0,0,1,0,1.414l-4,4a1,1,0,0,1-1.414,0l-2-2a1,1,0,0,1,1.414-1.414L12,9.586l3.293-3.293A1,1,0,0,1,16.707,6.293Z" transform="translate(-3)" fill="#00a6cf" fill-rule="evenodd"/>
</svg>
