<svg xmlns="http://www.w3.org/2000/svg" width="22.002" height="21.952" viewBox="0 0 22.002 21.952"><g transform="translate(-1 -1.048)"><path d="M22.41,10.59,20.36,8.54V5.63a2,2,0,0,0-2-2h-2.9l-2.05-2a2,2,0,0,0-2.82,0L8.54,3.64H5.63a2,2,0,0,0-2,2v2.9l-2,2.05a1.946,1.946,0,0,0-.05,2.82l2.06,2.05v2.91a2,2,0,0,0,2,2h2.9l2.05,2.05a2,2,0,0,0,2.82,0l2.05-2.06h2.91a2,2,0,0,0,2-2v-2.9l2.05-2.05a2,2,0,0,0,0-2.82Zm-4.05,4.05v3.72H14.64L12,21,9.36,18.36H5.64V14.64L3,12,5.64,9.36V5.64H9.36L12,3l2.64,2.64h3.72V9.36L21,12Z"/><path d="M11,12.73,8.71,10.44,7.29,11.85,11,15.56l5.71-5.71L15.29,8.44Z"/></g></svg>