<svg xmlns="http://www.w3.org/2000/svg" width="24" height="28" viewBox="0 0 24 28"><g transform="translate(-4 -2)"><ellipse cx="6" cy="3" rx="6" ry="3" transform="translate(5 3)" fill="none" stroke="#000" stroke-linecap="round" stroke-linejoin="round" stroke-miterlimit="10" stroke-width="2"/><path d="M5,6v4c0,1.7,2.7,3,6,3s6-1.3,6-3V6" fill="none" stroke="#000" stroke-linecap="round" stroke-linejoin="round" stroke-miterlimit="10" stroke-width="2"/><path d="M5,10v4c0,1.7,2.7,3,6,3s6-1.3,6-3V10" fill="none" stroke="#000" stroke-linecap="round" stroke-linejoin="round" stroke-miterlimit="10" stroke-width="2"/><path d="M5,14v4c0,1.7,2.7,3,6,3s6-1.3,6-3V14" fill="none" stroke="#000" stroke-linecap="round" stroke-linejoin="round" stroke-miterlimit="10" stroke-width="2"/><path d="M5,18v4c0,1.7,2.7,3,6,3s6-1.3,6-3V18" fill="none" stroke="#000" stroke-linecap="round" stroke-linejoin="round" stroke-miterlimit="10" stroke-width="2"/><path d="M5,22v4c0,1.7,2.7,3,6,3s6-1.3,6-3V22" fill="none" stroke="#000" stroke-linecap="round" stroke-linejoin="round" stroke-miterlimit="10" stroke-width="2"/><path d="M17,22.2a9.831,9.831,0,0,0,4,.8c3.3,0,6-1.3,6-3V16" fill="none" stroke="#000" stroke-linecap="round" stroke-linejoin="round" stroke-miterlimit="10" stroke-width="2"/><path d="M17,13.8a9.831,9.831,0,0,1,4-.8c3.3,0,6,1.3,6,3s-2.7,3-6,3a9.831,9.831,0,0,1-4-.8" fill="none" stroke="#000" stroke-linecap="round" stroke-linejoin="round" stroke-miterlimit="10" stroke-width="2"/><path d="M17,26.2a9.831,9.831,0,0,0,4,.8c3.3,0,6-1.3,6-3V20" fill="none" stroke="#000" stroke-linecap="round" stroke-linejoin="round" stroke-miterlimit="10" stroke-width="2"/></g></svg>