<svg xmlns="http://www.w3.org/2000/svg" width="22" height="22" viewBox="0 0 22 22"><path d="M5,1V3H1V20a3,3,0,0,0,3,3H19.24A3.77,3.77,0,0,0,23,19.24V1ZM3,20V5H5V20a1,1,0,0,1-2,0Zm18-.76A1.76,1.76,0,0,1,19.24,21H6.82A3,3,0,0,0,7,20V3H21Z" transform="translate(-1 -1)"/><rect width="8" height="2" transform="translate(10 4)"/><rect width="10" height="2" transform="translate(8 8)"/><rect width="10" height="2" transform="translate(8 12)"/><rect width="10" height="2" transform="translate(8 16)"/></svg>