<svg xmlns="http://www.w3.org/2000/svg" width="22" height="22" viewBox="0 0 22 22"><path d="M0,0H22V22H0Z" fill="none"/><path d="M2,20a7.238,7.238,0,0,1,14.476,0h-1.81A5.429,5.429,0,1,0,3.81,20Zm7.238-8.143a5.429,5.429,0,1,1,5.429-5.429A5.427,5.427,0,0,1,9.238,11.857Zm0-1.81A3.619,3.619,0,1,0,5.619,6.429,3.618,3.618,0,0,0,9.238,10.048Zm7.5,3.35A7.24,7.24,0,0,1,21,20H19.19a5.43,5.43,0,0,0-3.2-4.952l.743-1.65ZM16.111,3.183a4.978,4.978,0,0,1-1.444,9.559V10.921a3.167,3.167,0,0,0,.942-5.98Z" transform="translate(-0.333)"/></svg>