<svg xmlns="http://www.w3.org/2000/svg" width="80.641" height="72.927" viewBox="0 0 80.641 72.927"><g transform="translate(4 7)"><g transform="translate(-4 -7)"><path d="M0,0H80.641V72.927H0Z" fill="none" fill-rule="evenodd"/><path d="M14.839,39.419a4.607,4.607,0,0,0,4.1-2.4L23.8,27.813a6.13,6.13,0,0,0,.718-2.885V10.242A3.344,3.344,0,0,0,21.1,7H7.419A3.344,3.344,0,0,0,4,10.242V23.21a3.344,3.344,0,0,0,3.419,3.242h6.838L10.736,33.13A4.354,4.354,0,0,0,14.839,39.419Zm34.191,0a4.607,4.607,0,0,0,4.1-2.4l4.855-9.207a6.13,6.13,0,0,0,.718-2.885V10.242A3.344,3.344,0,0,0,55.286,7H41.61a3.344,3.344,0,0,0-3.419,3.242V23.21a3.344,3.344,0,0,0,3.419,3.242h6.838L44.927,33.13A4.354,4.354,0,0,0,49.029,39.419Z" transform="translate(8.968 13.254)" fill="#00a6cf" fill-rule="evenodd"/></g></g></svg>