<svg xmlns="http://www.w3.org/2000/svg" width="123.904" height="109.06" viewBox="0 0 123.904 109.06"><g transform="translate(-2.048 -9.47)"><path d="M15.164,31.327a8.036,8.036,0,0,0,15.778,0l1.232-6.338a8.476,8.476,0,0,0-8.4-9.614H22.331a8.476,8.476,0,0,0-8.4,9.614Z" fill="#2d3e50"/><path d="M41.242,83.054a.536.536,0,0,1-.023.833,4.08,4.08,0,0,1-2.637.819,3.88,3.88,0,0,1-1.979-.632c-.2,7.184-.4,9.77-.606,17-.059,2.544-.168,6.46-.261,9.761a7.871,7.871,0,0,1-7.807,7.656l-4.876.034-4.876-.034a7.877,7.877,0,0,1-7.807-7.656c-.093-3.3-.194-7.218-.261-9.761-.2-7.235-.4-9.82-.606-17a3.854,3.854,0,0,1-1.979.632,4.077,4.077,0,0,1-4.236-3.664,1.285,1.285,0,0,1-.025-.253v-.059c-.042-1.356-.118-2.7-.194-4.059s-.177-2.7-.286-4.051c-.093-1.356-.227-2.7-.337-4.051l-.387-4.051a2.476,2.476,0,0,1,0-.354l.067-.606.387-3.706c.109-1.238.236-2.476.337-3.706s.194-2.485.286-3.731c.076-1.238.152-2.485.185-3.739A6.206,6.206,0,0,1,6,43.757a2.209,2.209,0,0,1,.286-.177,5.7,5.7,0,0,1,2.8-.842c1.4-.194,2.8-.371,4.22-.539.851-.118,1.7-.219,2.543-.32a1.913,1.913,0,0,1,2,.935C18.907,44.448,20,46.073,21.089,47.7c.623.935,1.255,1.861,1.946,2.9,0-.017.017-.017.017-.025.008.008.017.008.025.025.691-1.036,1.314-1.962,1.946-2.9,1.087-1.625,2.173-3.251,3.234-4.885a1.9,1.9,0,0,1,2-.935c.851.1,1.7.2,2.552.32,1.407.168,2.821.345,4.22.539a5.62,5.62,0,0,1,1.651.3L33.082,56.155l-.244.573a8.562,8.562,0,0,0-.152,6.283l6.039,16.516a8.311,8.311,0,0,0,2.517,3.527Z" fill="#2d3e50"/><path d="M55.653,26.332a8.5,8.5,0,0,0,16.693,0l1.3-6.7A8.957,8.957,0,0,0,64.766,9.47H63.233a8.957,8.957,0,0,0-8.877,10.166Z" fill="#fff"/><path d="M91.28,58.37l-.236-.547-6.62-15.539a6.471,6.471,0,0,0-.345-.682,6.155,6.155,0,0,0-3.352-2.754.031.031,0,0,1-.025-.008,6.884,6.884,0,0,0-1.592-.4c-1.592-.219-3.2-.421-4.8-.615-.9-.118-1.8-.227-2.7-.337a2.021,2.021,0,0,0-2.114.985c-1.12,1.735-2.274,3.445-3.419,5.171-.665.985-1.331,1.971-2.055,3.066a.026.026,0,1,0-.051,0c-.724-1.095-1.39-2.08-2.055-3.066-1.145-1.727-2.3-3.436-3.419-5.171a2.021,2.021,0,0,0-2.114-.985c-.893.109-1.794.219-2.7.337-1.6.194-3.209.4-4.8.615a6.884,6.884,0,0,0-1.592.4.031.031,0,0,1-.025.008A6.155,6.155,0,0,0,43.921,41.6a6.473,6.473,0,0,0-.345.682l-6.62,15.539-.236.547a4.362,4.362,0,0,0-.084,3.184l.682,1.853,5.357,14.655a4.191,4.191,0,0,0,7.967-2.586l-1.28-4.506L46.465,60.8l2.485-3.958c.017.286.034.556.034.834.025.91.059,1.811.084,2.72.025.842.042,1.684.067,2.535l3.419,12a6.2,6.2,0,0,1-1.533,6.022,6.384,6.384,0,0,1-1.348,1.036c.211,7.689.421,10.4.64,18.091.067,2.7.177,6.839.278,10.326a8.324,8.324,0,0,0,8.254,8.094L64,118.53l5.154-.034a8.324,8.324,0,0,0,8.254-8.094c.1-3.487.211-7.631.278-10.326.219-7.689.43-10.4.64-18.091a6.384,6.384,0,0,1-1.348-1.036,6.2,6.2,0,0,1-1.533-6.022l3.419-12c.025-.851.042-1.693.067-2.535.025-.91.059-1.811.084-2.72,0-.278.017-.547.034-.834L81.535,60.8l-2.9,10.174-1.28,4.506a4.191,4.191,0,0,0,7.967,2.586l5.357-14.655.682-1.853a4.362,4.362,0,0,0-.084-3.184Z" fill="#fff"/><path d="M112.836,31.327a8.036,8.036,0,0,1-15.778,0l-1.232-6.338a8.476,8.476,0,0,1,8.4-9.614h1.445a8.476,8.476,0,0,1,8.4,9.614Z" fill="#2d3e50"/><path d="M86.758,83.054a.536.536,0,0,0,.023.833,4.08,4.08,0,0,0,2.637.819,3.88,3.88,0,0,0,1.979-.632c.2,7.184.4,9.77.606,17,.059,2.544.168,6.46.261,9.761a7.871,7.871,0,0,0,7.807,7.656l4.876.034,4.877-.034a7.877,7.877,0,0,0,7.807-7.656c.093-3.3.194-7.218.261-9.761.2-7.235.4-9.82.606-17a3.854,3.854,0,0,0,1.979.632,4.077,4.077,0,0,0,4.236-3.664,1.285,1.285,0,0,0,.025-.253v-.059c.042-1.356.118-2.7.194-4.059s.177-2.7.286-4.051c.093-1.356.227-2.7.337-4.051l.387-4.051a2.476,2.476,0,0,0,0-.354l-.067-.606-.387-3.706c-.109-1.238-.236-2.476-.337-3.706s-.194-2.485-.286-3.731c-.076-1.238-.152-2.485-.185-3.739A6.206,6.206,0,0,0,122,43.757a2.209,2.209,0,0,0-.286-.177,5.7,5.7,0,0,0-2.8-.842c-1.4-.194-2.8-.371-4.22-.539-.851-.118-1.7-.219-2.543-.32a1.913,1.913,0,0,0-2,.935c-1.053,1.634-2.148,3.259-3.234,4.885-.623.935-1.255,1.861-1.946,2.9,0-.017-.017-.017-.017-.025-.008.008-.017.008-.025.025-.691-1.036-1.314-1.962-1.946-2.9-1.087-1.625-2.173-3.251-3.234-4.885a1.9,1.9,0,0,0-2-.935c-.851.1-1.7.2-2.552.32-1.407.168-2.821.345-4.22.539a5.62,5.62,0,0,0-1.651.3l5.592,13.113.244.573a8.562,8.562,0,0,1,.152,6.283L89.275,79.526a8.311,8.311,0,0,1-2.517,3.527Z" fill="#2d3e50"/></g></svg>